<svg role="img" aria-label="Google Pay" xmlns="http://www.w3.org/2000/svg" width="800" height="800" fill="none" viewBox="0 -11 70 70"><rect width="69" height="47" x=".5" y=".5" fill="#fff" stroke="#D9D9D9" rx="5.5"/><path fill="#3C4043" fill-rule="evenodd" d="M33.06 31.516v-6.042h3.119c1.277 0 2.356-.428 3.235-1.273l.211-.213a4.35 4.35 0 0 0-.21-6.09 4.45 4.45 0 0 0-3.236-1.296h-5.006v14.914zm0-7.873v-5.21h3.166c.68 0 1.325.262 1.806.738 1.02.999 1.043 2.664.059 3.698a2.45 2.45 0 0 1-1.865.773zm15.37-1.535c-.81-.749-1.911-1.13-3.307-1.13-1.793 0-3.141.666-4.032 1.987l1.664 1.058q.915-1.356 2.497-1.356c.669 0 1.313.25 1.817.702a2.25 2.25 0 0 1 .774 1.7v.44c-.727-.404-1.641-.618-2.767-.618-1.312 0-2.368.31-3.153.94s-1.184 1.463-1.184 2.521a3.17 3.17 0 0 0 1.114 2.498c.738.666 1.676 1 2.778 1 1.301 0 2.333-.584 3.118-1.75h.082v1.416h1.806v-6.292c0-1.32-.399-2.366-1.208-3.116m-5.123 7.529a1.55 1.55 0 0 1-.622-1.249c0-.559.258-1.023.762-1.392.516-.368 1.161-.558 1.923-.558 1.056-.012 1.876.226 2.463.701 0 .809-.317 1.51-.938 2.105a2.98 2.98 0 0 1-2.123.892 2.3 2.3 0 0 1-1.465-.5M53.693 36 60 21.31H57.95l-2.92 7.327h-.035l-2.99-7.327h-2.05l4.138 9.55L51.747 36z" clip-rule="evenodd"/><path fill="#4285F4" d="M26.544 24.166c0-.583-.047-1.166-.14-1.737h-7.96v3.295h4.56a3.97 3.97 0 0 1-1.689 2.605v2.14h2.72c1.595-1.486 2.509-3.687 2.509-6.303"/><path fill="#34A853" d="M18.444 32.539c2.274 0 4.197-.761 5.592-2.07l-2.72-2.14c-.762.523-1.735.82-2.872.82-2.204 0-4.068-1.51-4.736-3.532h-2.802v2.212c1.43 2.89 4.35 4.71 7.538 4.71"/><path fill="#FBBC04" d="M13.708 25.617a5.24 5.24 0 0 1 0-3.283v-2.2h-2.802a8.6 8.6 0 0 0 0 7.683z"/><path fill="#EA4335" d="M18.444 18.802a4.5 4.5 0 0 1 3.236 1.284l2.415-2.45a8.08 8.08 0 0 0-5.65-2.224c-3.19 0-6.109 1.832-7.539 4.722l2.802 2.212c.668-2.034 2.532-3.544 4.736-3.544"/></svg>